<svg xmlns="http://www.w3.org/2000/svg" xmlns:svg="http://www.w3.org/2000/svg" xmlns:xlink="http://www.w3.org/1999/xlink" width="313.632" height="423.264" version="1.1" viewBox="0 0 82.982 111.989"><title>SVG Image created as Hackpad-B_Mask.svg date 2024/10/19 10:11:13</title><desc>Image generated by PCBNEW</desc><g style="fill:#02ffee;fill-opacity:.4;stroke:none"><circle cx="10.453" cy="91.09" r=".875"/></g><g style="fill:#02ffee;fill-opacity:.4;stroke:none"><circle cx="15.533" cy="91.09" r="2"/></g><g style="fill:#02ffee;fill-opacity:.4;stroke:none"><circle cx="20.613" cy="91.09" r=".875"/></g><g style="fill:#02ffee;fill-opacity:.4;stroke:none"><circle cx="11.723" cy="88.55" r="1.25"/></g><g style="fill:#02ffee;fill-opacity:.4;stroke:none"><circle cx="18.073" cy="86.01" r="1.25"/></g><g style="fill:#02ffee;fill-opacity:.4;stroke:none"><circle cx="48.523" cy="72.05" r=".875"/></g><g style="fill:#02ffee;fill-opacity:.4;stroke:none"><circle cx="53.602" cy="72.05" r="2"/></g><g style="fill:#02ffee;fill-opacity:.4;stroke:none"><circle cx="58.682" cy="72.05" r=".875"/></g><g style="fill:#02ffee;fill-opacity:.4;stroke:none"><circle cx="49.792" cy="69.51" r="1.25"/></g><g style="fill:#02ffee;fill-opacity:.4;stroke:none"><circle cx="56.142" cy="66.97" r="1.25"/><path style="fill:#02ffee;fill-opacity:.4;stroke:none;fill-rule:evenodd" d="M 13.0000,25.0000 13.0000,23.0000 15.0000,23.0000 15.0000,25.0000 Z"/></g><g style="fill:#02ffee;fill-opacity:.4;stroke:none"><circle cx="14" cy="29" r="1"/></g><g style="fill:#02ffee;fill-opacity:.4;stroke:none"><circle cx="14" cy="26.5" r="1"/><path style="fill:#02ffee;fill-opacity:.4;stroke:none;fill-rule:evenodd" d="M 19.9000,21.9000 19.9000,19.9000 23.1000,19.9000 23.1000,21.9000 Z"/><path style="fill:#02ffee;fill-opacity:.4;stroke:none;fill-rule:evenodd" d="M 19.9000,33.1000 19.9000,31.1000 23.1000,31.1000 23.1000,33.1000 Z"/></g><g style="fill:#02ffee;fill-opacity:.4;stroke:none"><circle cx="28.5" cy="29" r="1"/></g><g style="fill:#02ffee;fill-opacity:.4;stroke:none"><circle cx="28.5" cy="24" r="1"/></g><g style="fill:#02ffee;fill-opacity:.4;stroke:none"><circle cx="29.503" cy="53" r=".875"/></g><g style="fill:#02ffee;fill-opacity:.4;stroke:none"><circle cx="34.583" cy="53" r="2"/></g><g style="fill:#02ffee;fill-opacity:.4;stroke:none"><circle cx="39.663" cy="53" r=".875"/></g><g style="fill:#02ffee;fill-opacity:.4;stroke:none"><circle cx="30.773" cy="50.46" r="1.25"/></g><g style="fill:#02ffee;fill-opacity:.4;stroke:none"><circle cx="37.123" cy="47.92" r="1.25"/></g><g style="fill:#02ffee;fill-opacity:.4;stroke:none"><circle cx="34.6" cy="86" r=".875"/></g><g style="fill:#02ffee;fill-opacity:.4;stroke:none"><circle cx="34.6" cy="91.08" r="2"/></g><g style="fill:#02ffee;fill-opacity:.4;stroke:none"><circle cx="34.6" cy="96.16" r=".875"/></g><g style="fill:#02ffee;fill-opacity:.4;stroke:none"><circle cx="37.14" cy="87.27" r="1.25"/></g><g style="fill:#02ffee;fill-opacity:.4;stroke:none"><circle cx="39.68" cy="93.62" r="1.25"/></g><g style="fill:#02ffee;fill-opacity:.4;stroke:none"><circle cx="29.503" cy="72.05" r=".875"/></g><g style="fill:#02ffee;fill-opacity:.4;stroke:none"><circle cx="34.583" cy="72.05" r="2"/></g><g style="fill:#02ffee;fill-opacity:.4;stroke:none"><circle cx="39.663" cy="72.05" r=".875"/></g><g style="fill:#02ffee;fill-opacity:.4;stroke:none"><circle cx="30.773" cy="69.51" r="1.25"/></g><g style="fill:#02ffee;fill-opacity:.4;stroke:none"><circle cx="37.123" cy="66.97" r="1.25"/></g><g style="fill:#02ffee;fill-opacity:.4;stroke:none"><circle cx="48.523" cy="91.08" r=".875"/></g><g style="fill:#02ffee;fill-opacity:.4;stroke:none"><circle cx="53.602" cy="91.08" r="2"/></g><g style="fill:#02ffee;fill-opacity:.4;stroke:none"><circle cx="58.682" cy="91.08" r=".875"/></g><g style="fill:#02ffee;fill-opacity:.4;stroke:none"><circle cx="49.792" cy="88.54" r="1.25"/></g><g style="fill:#02ffee;fill-opacity:.4;stroke:none"><circle cx="56.142" cy="86" r="1.25"/></g><g style="fill:#02ffee;fill-opacity:.4;stroke:none"><circle cx="10.453" cy="53" r=".875"/></g><g style="fill:#02ffee;fill-opacity:.4;stroke:none"><circle cx="15.533" cy="53" r="2"/></g><g style="fill:#02ffee;fill-opacity:.4;stroke:none"><circle cx="20.613" cy="53" r=".875"/></g><g style="fill:#02ffee;fill-opacity:.4;stroke:none"><circle cx="11.723" cy="50.46" r="1.25"/></g><g style="fill:#02ffee;fill-opacity:.4;stroke:none"><circle cx="18.073" cy="47.92" r="1.25"/></g><g style="fill:#02ffee;fill-opacity:.4;stroke:none"><circle cx="48.523" cy="53" r=".875"/></g><g style="fill:#02ffee;fill-opacity:.4;stroke:none"><circle cx="53.602" cy="53" r="2"/></g><g style="fill:#02ffee;fill-opacity:.4;stroke:none"><circle cx="58.682" cy="53" r=".875"/></g><g style="fill:#02ffee;fill-opacity:.4;stroke:none"><circle cx="49.792" cy="50.46" r="1.25"/></g><g style="fill:#02ffee;fill-opacity:.4;stroke:none"><circle cx="56.142" cy="47.92" r="1.25"/><path style="fill:#02ffee;fill-opacity:.4;stroke:none;fill-rule:evenodd" d="M 46.2300,16.8500 44.5300,16.8500 44.5300,15.1500 46.2300,15.1500 Z"/></g><g style="fill:#02ffee;fill-opacity:.4;stroke:none"><circle cx="47.92" cy="16" r=".85"/><circle cx="50.46" cy="16" r=".85"/><circle cx="53" cy="16" r=".85"/><circle cx="10.453" cy="72.04" r=".875"/></g><g style="fill:#02ffee;fill-opacity:.4;stroke:none"><circle cx="15.533" cy="72.04" r="2"/></g><g style="fill:#02ffee;fill-opacity:.4;stroke:none"><circle cx="20.613" cy="72.04" r=".875"/></g><g style="fill:#02ffee;fill-opacity:.4;stroke:none"><circle cx="11.723" cy="69.5" r="1.25"/></g><g style="fill:#02ffee;fill-opacity:.4;stroke:none"><circle cx="18.073" cy="66.96" r="1.25"/><path style="fill:#02ffee;fill-opacity:.4;stroke:none;fill-rule:evenodd" d="M 63.9275,57.6100 62.3275,57.6100 62.3275,56.0100 63.9275,56.0100 Z"/></g><g style="fill:#02ffee;fill-opacity:.4;stroke:none"><circle cx="63.127" cy="49.19" r=".8"/><path style="fill:#02ffee;fill-opacity:.4;stroke:none;fill-rule:evenodd" d="M 31.2900,81.3000 31.2900,79.7000 32.8900,79.7000 32.8900,81.3000 Z"/><circle cx="39.71" cy="80.5" r=".8"/><path style="fill:#02ffee;fill-opacity:.4;stroke:none;fill-rule:evenodd" d="M 63.9275,95.6900 62.3275,95.6900 62.3275,94.0900 63.9275,94.0900 Z"/><circle cx="63.127" cy="87.27" r=".8"/><path style="fill:#02ffee;fill-opacity:.4;stroke:none;fill-rule:evenodd" d="M 24.9000,95.7100 23.3000,95.7100 23.3000,94.1100 24.9000,94.1100 Z"/><circle cx="24.1" cy="87.29" r=".8"/><path style="fill:#02ffee;fill-opacity:.4;stroke:none;fill-rule:evenodd" d="M 25.8575,57.6100 24.2575,57.6100 24.2575,56.0100 25.8575,56.0100 Z"/><circle cx="25.058" cy="49.19" r=".8"/><path style="fill:#02ffee;fill-opacity:.4;stroke:none;fill-rule:evenodd" d="M 25.4600,99.5600 25.4714,99.4537 25.5212,99.3204 25.6064,99.2064 25.7204,99.1212 25.8537,99.0714 25.9600,99.0600 27.7100,99.0600 27.8163,99.0714 27.9496,99.1212 28.0636,99.2064 28.1488,99.3204 28.1986,99.4537 28.2100,99.5600 28.2100,100.5600 28.1986,100.6663 28.1488,100.7996 28.0636,100.9136 27.9496,100.9988 27.8163,101.0486 27.7100,101.0600 25.9600,101.0600 25.8537,101.0486 25.7204,100.9988 25.6064,100.9136 25.5212,100.7996 25.4714,100.6663 25.4600,100.5600 Z"/><path style="fill:#02ffee;fill-opacity:.4;stroke:none;fill-rule:evenodd" d="M 26.4800,99.2600 28.0800,99.2600 28.0800,100.8600 26.4800,100.8600 Z"/><path style="fill:#02ffee;fill-opacity:.4;stroke:none;fill-rule:evenodd" d="M 25.4600,97.0200 25.4714,96.9137 25.5212,96.7804 25.6064,96.6664 25.7204,96.5812 25.8537,96.5314 25.9600,96.5200 27.7100,96.5200 27.8163,96.5314 27.9496,96.5812 28.0636,96.6664 28.1488,96.7804 28.1986,96.9137 28.2100,97.0200 28.2100,98.0200 28.1986,98.1263 28.1488,98.2596 28.0636,98.3736 27.9496,98.4588 27.8163,98.5086 27.7100,98.5200 25.9600,98.5200 25.8537,98.5086 25.7204,98.4588 25.6064,98.3736 25.5212,98.2596 25.4714,98.1263 25.4600,98.0200 Z"/><circle cx="27.28" cy="97.52" r=".8"/><path style="fill:#02ffee;fill-opacity:.4;stroke:none;fill-rule:evenodd" d="M 25.4600,94.4800 25.4714,94.3737 25.5212,94.2404 25.6064,94.1264 25.7204,94.0412 25.8537,93.9914 25.9600,93.9800 27.7100,93.9800 27.8163,93.9914 27.9496,94.0412 28.0636,94.1264 28.1488,94.2404 28.1986,94.3737 28.2100,94.4800 28.2100,95.4800 28.1986,95.5863 28.1488,95.7196 28.0636,95.8336 27.9496,95.9188 27.8163,95.9686 27.7100,95.9800 25.9600,95.9800 25.8537,95.9686 25.7204,95.9188 25.6064,95.8336 25.5212,95.7196 25.4714,95.5863 25.4600,95.4800 Z"/></g><g style="fill:#02ffee;fill-opacity:.4;stroke:none"><circle cx="27.28" cy="94.98" r=".8"/><path style="fill:#02ffee;fill-opacity:.4;stroke:none;fill-rule:evenodd" d="M 25.4600,91.9400 25.4714,91.8337 25.5212,91.7004 25.6064,91.5864 25.7204,91.5012 25.8537,91.4514 25.9600,91.4400 27.7100,91.4400 27.8163,91.4514 27.9496,91.5012 28.0636,91.5864 28.1488,91.7004 28.1986,91.8337 28.2100,91.9400 28.2100,92.9400 28.1986,93.0463 28.1488,93.1796 28.0636,93.2936 27.9496,93.3788 27.8163,93.4286 27.7100,93.4400 25.9600,93.4400 25.8537,93.4286 25.7204,93.3788 25.6064,93.2936 25.5212,93.1796 25.4714,93.0463 25.4600,92.9400 Z"/></g><g style="fill:#02ffee;fill-opacity:.4;stroke:none"><circle cx="27.28" cy="92.44" r=".8"/><path style="fill:#02ffee;fill-opacity:.4;stroke:none;fill-rule:evenodd" d="M 25.4600,89.4000 25.4714,89.2937 25.5212,89.1604 25.6064,89.0464 25.7204,88.9612 25.8537,88.9114 25.9600,88.9000 27.7100,88.9000 27.8163,88.9114 27.9496,88.9612 28.0636,89.0464 28.1488,89.1604 28.1986,89.2937 28.2100,89.4000 28.2100,90.4000 28.1986,90.5063 28.1488,90.6396 28.0636,90.7536 27.9496,90.8388 27.8163,90.8886 27.7100,90.9000 25.9600,90.9000 25.8537,90.8886 25.7204,90.8388 25.6064,90.7536 25.5212,90.6396 25.4714,90.5063 25.4600,90.4000 Z"/></g><g style="fill:#02ffee;fill-opacity:.4;stroke:none"><circle cx="27.28" cy="89.9" r=".8"/><path style="fill:#02ffee;fill-opacity:.4;stroke:none;fill-rule:evenodd" d="M 25.4600,86.8600 25.4714,86.7537 25.5212,86.6204 25.6064,86.5064 25.7204,86.4212 25.8537,86.3714 25.9600,86.3600 27.7100,86.3600 27.8163,86.3714 27.9496,86.4212 28.0636,86.5064 28.1488,86.6204 28.1986,86.7537 28.2100,86.8600 28.2100,87.8600 28.1986,87.9663 28.1488,88.0996 28.0636,88.2136 27.9496,88.2988 27.8163,88.3486 27.7100,88.3600 25.9600,88.3600 25.8537,88.3486 25.7204,88.2988 25.6064,88.2136 25.5212,88.0996 25.4714,87.9663 25.4600,87.8600 Z"/></g><g style="fill:#02ffee;fill-opacity:.4;stroke:none"><circle cx="27.28" cy="87.36" r=".8"/><path style="fill:#02ffee;fill-opacity:.4;stroke:none;fill-rule:evenodd" d="M 25.4600,84.3200 25.4714,84.2137 25.5212,84.0804 25.6064,83.9664 25.7204,83.8812 25.8537,83.8314 25.9600,83.8200 27.7100,83.8200 27.8163,83.8314 27.9496,83.8812 28.0636,83.9664 28.1488,84.0804 28.1986,84.2137 28.2100,84.3200 28.2100,85.3200 28.1986,85.4263 28.1488,85.5596 28.0636,85.6736 27.9496,85.7588 27.8163,85.8086 27.7100,85.8200 25.9600,85.8200 25.8537,85.8086 25.7204,85.7588 25.6064,85.6736 25.5212,85.5596 25.4714,85.4263 25.4600,85.3200 Z"/></g><g style="fill:#02ffee;fill-opacity:.4;stroke:none"><circle cx="27.28" cy="84.82" r=".8"/></g><g style="fill:#02ffee;fill-opacity:.4;stroke:none"><circle cx="42.52" cy="84.82" r=".8"/><path style="fill:#02ffee;fill-opacity:.4;stroke:none;fill-rule:evenodd" d="M 41.6250,84.3200 41.6364,84.2137 41.6862,84.0804 41.7714,83.9664 41.8854,83.8812 42.0187,83.8314 42.1250,83.8200 43.8750,83.8200 43.9813,83.8314 44.1146,83.8812 44.2286,83.9664 44.3138,84.0804 44.3636,84.2137 44.3750,84.3200 44.3750,85.3200 44.3636,85.4263 44.3138,85.5596 44.2286,85.6736 44.1146,85.7588 43.9813,85.8086 43.8750,85.8200 42.1250,85.8200 42.0187,85.8086 41.8854,85.7588 41.7714,85.6736 41.6862,85.5596 41.6364,85.4263 41.6250,85.3200 Z"/></g><g style="fill:#02ffee;fill-opacity:.4;stroke:none"><circle cx="42.52" cy="87.36" r=".8"/><path style="fill:#02ffee;fill-opacity:.4;stroke:none;fill-rule:evenodd" d="M 41.6250,86.8600 41.6364,86.7537 41.6862,86.6204 41.7714,86.5064 41.8854,86.4212 42.0187,86.3714 42.1250,86.3600 43.8750,86.3600 43.9813,86.3714 44.1146,86.4212 44.2286,86.5064 44.3138,86.6204 44.3636,86.7537 44.3750,86.8600 44.3750,87.8600 44.3636,87.9663 44.3138,88.0996 44.2286,88.2136 44.1146,88.2988 43.9813,88.3486 43.8750,88.3600 42.1250,88.3600 42.0187,88.3486 41.8854,88.2988 41.7714,88.2136 41.6862,88.0996 41.6364,87.9663 41.6250,87.8600 Z"/></g><g style="fill:#02ffee;fill-opacity:.4;stroke:none"><circle cx="42.52" cy="89.9" r=".8"/><path style="fill:#02ffee;fill-opacity:.4;stroke:none;fill-rule:evenodd" d="M 41.6250,89.4000 41.6364,89.2937 41.6862,89.1604 41.7714,89.0464 41.8854,88.9612 42.0187,88.9114 42.1250,88.9000 43.8750,88.9000 43.9813,88.9114 44.1146,88.9612 44.2286,89.0464 44.3138,89.1604 44.3636,89.2937 44.3750,89.4000 44.3750,90.4000 44.3636,90.5063 44.3138,90.6396 44.2286,90.7536 44.1146,90.8388 43.9813,90.8886 43.8750,90.9000 42.1250,90.9000 42.0187,90.8886 41.8854,90.8388 41.7714,90.7536 41.6862,90.6396 41.6364,90.5063 41.6250,90.4000 Z"/></g><g style="fill:#02ffee;fill-opacity:.4;stroke:none"><circle cx="42.52" cy="92.44" r=".8"/><path style="fill:#02ffee;fill-opacity:.4;stroke:none;fill-rule:evenodd" d="M 41.6250,91.9400 41.6364,91.8337 41.6862,91.7004 41.7714,91.5864 41.8854,91.5012 42.0187,91.4514 42.1250,91.4400 43.8750,91.4400 43.9813,91.4514 44.1146,91.5012 44.2286,91.5864 44.3138,91.7004 44.3636,91.8337 44.3750,91.9400 44.3750,92.9400 44.3636,93.0463 44.3138,93.1796 44.2286,93.2936 44.1146,93.3788 43.9813,93.4286 43.8750,93.4400 42.1250,93.4400 42.0187,93.4286 41.8854,93.3788 41.7714,93.2936 41.6862,93.1796 41.6364,93.0463 41.6250,92.9400 Z"/></g><g style="fill:#02ffee;fill-opacity:.4;stroke:none"><circle cx="42.52" cy="94.98" r=".8"/><path style="fill:#02ffee;fill-opacity:.4;stroke:none;fill-rule:evenodd" d="M 41.6250,94.4800 41.6364,94.3737 41.6862,94.2404 41.7714,94.1264 41.8854,94.0412 42.0187,93.9914 42.1250,93.9800 43.8750,93.9800 43.9813,93.9914 44.1146,94.0412 44.2286,94.1264 44.3138,94.2404 44.3636,94.3737 44.3750,94.4800 44.3750,95.4800 44.3636,95.5863 44.3138,95.7196 44.2286,95.8336 44.1146,95.9188 43.9813,95.9686 43.8750,95.9800 42.1250,95.9800 42.0187,95.9686 41.8854,95.9188 41.7714,95.8336 41.6862,95.7196 41.6364,95.5863 41.6250,95.4800 Z"/></g><g style="fill:#02ffee;fill-opacity:.4;stroke:none"><circle cx="42.52" cy="97.52" r=".8"/><path style="fill:#02ffee;fill-opacity:.4;stroke:none;fill-rule:evenodd" d="M 41.6250,97.0200 41.6364,96.9137 41.6862,96.7804 41.7714,96.6664 41.8854,96.5812 42.0187,96.5314 42.1250,96.5200 43.8750,96.5200 43.9813,96.5314 44.1146,96.5812 44.2286,96.6664 44.3138,96.7804 44.3636,96.9137 44.3750,97.0200 44.3750,98.0200 44.3636,98.1263 44.3138,98.2596 44.2286,98.3736 44.1146,98.4588 43.9813,98.5086 43.8750,98.5200 42.1250,98.5200 42.0187,98.5086 41.8854,98.4588 41.7714,98.3736 41.6862,98.2596 41.6364,98.1263 41.6250,98.0200 Z"/></g><g style="fill:#02ffee;fill-opacity:.4;stroke:none"><circle cx="42.52" cy="100.06" r=".8"/><path style="fill:#02ffee;fill-opacity:.4;stroke:none;fill-rule:evenodd" d="M 41.6250,99.5600 41.6364,99.4537 41.6862,99.3204 41.7714,99.2064 41.8854,99.1212 42.0187,99.0714 42.1250,99.0600 43.8750,99.0600 43.9813,99.0714 44.1146,99.1212 44.2286,99.2064 44.3138,99.3204 44.3636,99.4537 44.3750,99.5600 44.3750,100.5600 44.3636,100.6663 44.3138,100.7996 44.2286,100.9136 44.1146,100.9988 43.9813,101.0486 43.8750,101.0600 42.1250,101.0600 42.0187,101.0486 41.8854,100.9988 41.7714,100.9136 41.6862,100.7996 41.6364,100.6663 41.6250,100.5600 Z"/><path style="fill:#02ffee;fill-opacity:.4;stroke:none;fill-rule:evenodd" d="M 63.9275,76.6600 62.3275,76.6600 62.3275,75.0600 63.9275,75.0600 Z"/></g><g style="fill:#02ffee;fill-opacity:.4;stroke:none"><circle cx="63.127" cy="68.24" r=".8"/><path style="fill:#02ffee;fill-opacity:.4;stroke:none;fill-rule:evenodd" d="M 25.8575,76.6600 24.2575,76.6600 24.2575,75.0600 25.8575,75.0600 Z"/><circle cx="25.058" cy="68.24" r=".8"/><path style="fill:#02ffee;fill-opacity:.4;stroke:none;fill-rule:evenodd" d="M 44.8775,76.6600 43.2775,76.6600 43.2775,75.0600 44.8775,75.0600 Z"/><circle cx="44.078" cy="68.24" r=".8"/><path style="fill:#02ffee;fill-opacity:.4;stroke:none;fill-rule:evenodd" d="M 44.9075,57.6100 43.3075,57.6100 43.3075,56.0100 44.9075,56.0100 Z"/><circle cx="44.108" cy="49.19" r=".8"/><path style="fill:none;stroke:#d0d2cd;stroke-width:.05;stroke-opacity:1;stroke-linecap:round;stroke-linejoin:round" d="M 4.0000,13.0000 66.0000,13.0000 66.0000,102.0000 4.0000,102.0000 Z"/></g></svg>